<?xml version="1.0" encoding="UTF-8"?>
<svg xmlns="http://www.w3.org/2000/svg" width="100" height="58" viewBox="0 0 100 58" fill="none">
  <g id="Vector">
    <path d="M46.4164 0.0163269C57.0166 0.047729 66.1582 0.149324 75.2864 0.570482C79.0006 0.744117 82.7148 0.939933 86.4002 1.41651C92.9609 2.26806 96.7215 5.2956 97.9943 10.8021C98.8509 14.4964 99.101 18.2388 99.3401 21.9849C99.6367 26.5312 99.6367 31.0875 99.3401 35.6337C99.07 39.7751 98.8531 43.922 97.7906 47.9951C96.4803 52.9917 92.4208 56.034 86.3006 56.6768C79.9657 57.34 73.5976 57.5801 67.2272 57.7519C55.766 58.061 44.3032 58.061 32.839 57.7519C26.5794 57.582 20.3242 57.3197 14.0999 56.6713C7.28469 55.962 3.16323 52.8292 2.01666 47.186C0.482739 39.6384 0.245905 32.0188 0.555789 24.3844C0.701877 20.6365 0.925434 16.8867 1.54963 13.1683C1.89714 11.1032 2.21367 9.00657 3.39344 7.12983C5.68215 3.51305 9.41182 1.73053 14.2084 1.27612C18.9717 0.827253 23.7506 0.550179 28.5361 0.402405C34.9728 0.202909 41.425 0.119769 46.4164 0.0163269Z" fill="white"></path>
    <path d="M65.8062 29.0301C64.4449 29.7689 40.9956 41.0054 40.2718 41.2658C39.9575 41.0922 40.1036 40.8207 40.1036 40.599C40.0947 32.911 40.0896 25.2224 40.0881 17.5332C40.0881 16.9088 40.1058 16.5782 41.0022 17.0104C49.1551 20.9511 57.3161 24.8794 65.4853 28.7955C65.5985 28.8675 65.7057 28.9459 65.8062 29.0301Z" fill="black"></path>
  </g>
</svg>
